<svg width="20" height="19" viewBox="0 0 20 19" fill="none" xmlns="http://www.w3.org/2000/svg">
<path d="M14.5 0.2146C12.76 0.2146 11.09 1.0246 10 2.3046C8.91 1.0246 7.24 0.2146 5.5 0.2146C2.42 0.2146 0 2.6346 0 5.7146C0 9.4946 3.4 12.5746 8.55 17.2546L10 18.5646L11.45 17.2446C16.6 12.5746 20 9.4946 20 5.7146C20 2.6346 17.58 0.2146 14.5 0.2146ZM10.1 15.7646L10 15.8646L9.9 15.7646C5.14 11.4546 2 8.6046 2 5.7146C2 3.7146 3.5 2.2146 5.5 2.2146C7.04 2.2146 8.54 3.2046 9.07 4.5746H10.94C11.46 3.2046 12.96 2.2146 14.5 2.2146C16.5 2.2146 18 3.7146 18 5.7146C18 8.6046 14.86 11.4546 10.1 15.7646Z" fill="currentColor"/>
</svg>
