<svg width="16" height="15" viewBox="0 0 16 15" fill="none" xmlns="http://www.w3.org/2000/svg">
<path d="M11.5723 0.712524C10.2553 0.712524 8.9912 1.3018 8.16616 2.23299C7.34111 1.3018 6.07705 0.712524 4.76 0.712524C2.42868 0.712524 0.596924 2.47307 0.596924 4.71376C0.596924 7.4637 3.17046 9.70439 7.06862 13.1091L8.16616 14.0621L9.2637 13.1018C13.1619 9.70439 15.7354 7.4637 15.7354 4.71376C15.7354 2.47307 13.9036 0.712524 11.5723 0.712524ZM8.24185 12.0251L8.16616 12.0979L8.09046 12.0251C4.48751 8.88959 2.11077 6.81622 2.11077 4.71376C2.11077 3.25876 3.24616 2.16752 4.76 2.16752C5.92566 2.16752 7.06105 2.88774 7.46222 3.88441H8.87766C9.27127 2.88774 10.4066 2.16752 11.5723 2.16752C13.0862 2.16752 14.2215 3.25876 14.2215 4.71376C14.2215 6.81622 11.8448 8.88959 8.24185 12.0251Z" fill="white"/>
</svg>
