<svg width="21" height="21" viewBox="0 0 21 21" fill="none" xmlns="http://www.w3.org/2000/svg">
<path d="M4.31549 14.5372L4.31315 14.6923L4.39907 14.8216C5.77779 16.895 8.14099 18.2647 10.8154 18.2647C13.4899 18.2647 15.8531 16.895 17.2318 14.8216L17.3177 14.6923L17.3154 14.5372C17.3052 13.8596 16.9565 13.2982 16.4867 12.8588C16.0189 12.4212 15.3975 12.0705 14.7432 11.7971C13.4367 11.2512 11.8788 10.9647 10.8154 10.9647C9.74717 10.9647 8.18921 11.2512 6.88375 11.7972C6.22999 12.0706 5.60942 12.4214 5.14244 12.8591C4.67334 13.2987 4.32569 13.8601 4.31549 14.5372ZM1.31543 10.5647C1.31543 5.32084 5.57157 1.0647 10.8154 1.0647C16.0593 1.0647 20.3154 5.32084 20.3154 10.5647C20.3154 15.8086 16.0593 20.0647 10.8154 20.0647C5.57157 20.0647 1.31543 15.8086 1.31543 10.5647ZM14.3154 6.5647C14.3154 4.62855 12.7516 3.0647 10.8154 3.0647C8.87929 3.0647 7.31543 4.62855 7.31543 6.5647C7.31543 8.50084 8.87929 10.0647 10.8154 10.0647C12.7516 10.0647 14.3154 8.50084 14.3154 6.5647Z" fill="currentColor" stroke="currentColor"/>
</svg>
